<svg width="216" height="33" viewBox="0 0 216 33" fill="none" xmlns="http://www.w3.org/2000/svg">
<path d="M52.0733 23.7979V20.5154L66.592 20.5406C67.3326 20.5406 67.8966 20.3723 68.2837 20.0356C68.6877 19.6821 68.8897 19.1182 68.8897 18.3439C68.8897 17.5696 68.6877 17.0141 68.2837 16.6774C67.8966 16.3239 67.3326 16.1472 66.592 16.1472H57.5525C55.684 16.1472 54.2279 15.7011 53.1843 14.8089C52.1575 13.8999 51.644 12.5701 51.644 10.8194C51.644 9.06877 52.1575 7.74736 53.1843 6.85519C54.2279 5.9462 55.684 5.4917 57.5525 5.4917H71.743V8.77419L57.9818 8.74894C57.2579 8.74894 56.694 8.91727 56.29 9.25393C55.886 9.57377 55.684 10.0956 55.684 10.8194C55.684 11.5433 55.886 12.0735 56.29 12.4102C56.694 12.73 57.2579 12.8899 57.9818 12.8899H67.0212C68.8897 12.8899 70.3374 13.3528 71.3642 14.2787C72.4079 15.1877 72.9297 16.5427 72.9297 18.3439C72.9297 20.1282 72.4079 21.4833 71.3642 22.4091C70.3374 23.335 68.8897 23.7979 67.0212 23.7979H52.0733Z" fill="#D55190"/>
<path d="M81.851 23.6716C80.3865 23.6716 79.3092 23.3097 78.619 22.5859C77.9289 21.8452 77.5838 20.8773 77.5838 19.6821V13.5717H73.8215V10.6679H77.5838V6.67844H81.245V10.6679H86.6485V13.5717H81.245V19.2276C81.245 20.2545 81.75 20.7679 82.76 20.7679H87.3555V23.6716H81.851Z" fill="#D55190"/>
<path d="M95.9038 23.7979C93.6481 23.7979 91.889 23.2424 90.6265 22.1314C89.364 21.0036 88.7328 19.3539 88.7328 17.1824C88.7328 14.9941 89.364 13.3444 90.6265 12.2334C91.889 11.1056 93.6481 10.5417 95.9038 10.5417H100.575C102.831 10.5417 104.59 11.1056 105.852 12.2334C107.115 13.3444 107.746 14.9941 107.746 17.1824C107.746 19.3539 107.115 21.0036 105.852 22.1314C104.59 23.2424 102.831 23.7979 100.575 23.7979H95.9038ZM95.9038 20.8941H100.575C101.669 20.8941 102.502 20.5911 103.075 19.9851C103.664 19.3791 103.958 18.4449 103.958 17.1824C103.958 15.9031 103.664 14.9604 103.075 14.3544C102.502 13.7484 101.669 13.4454 100.575 13.4454H95.9038C94.8096 13.4454 93.9679 13.7484 93.3788 14.3544C92.8064 14.9604 92.5203 15.9031 92.5203 17.1824C92.5203 18.4449 92.8064 19.3791 93.3788 19.9851C93.9679 20.5911 94.8096 20.8941 95.9038 20.8941Z" fill="#D55190"/>
<path d="M116.691 23.7979C114.435 23.7979 112.676 23.2424 111.413 22.1314C110.151 21.0036 109.52 19.3539 109.52 17.1824C109.52 14.9941 110.151 13.3444 111.413 12.2334C112.676 11.1056 114.435 10.5417 116.691 10.5417H125.149V13.4454H116.691C115.596 13.4454 114.755 13.7484 114.166 14.3544C113.593 14.9604 113.307 15.9031 113.307 17.1824C113.307 18.4449 113.593 19.3791 114.166 19.9851C114.755 20.5911 115.596 20.8941 116.691 20.8941H125.402V23.7979H116.691Z" fill="#D55190"/>
<path d="M127.285 23.6716V5.61795H130.946V10.6679H139.683C141.164 10.6679 142.292 11.0214 143.066 11.7284C143.858 12.4186 144.253 13.4118 144.253 14.7079C144.253 16.8289 143.243 18.0914 141.223 18.4954L144.304 23.6716H140.188L137.208 18.6469H130.946V23.6716H127.285ZM139.506 13.5464H130.946V15.7684H139.506C139.843 15.7684 140.104 15.6674 140.289 15.4654C140.491 15.2634 140.592 14.9857 140.592 14.6322C140.592 13.9083 140.23 13.5464 139.506 13.5464Z" fill="#D55190"/>
<path d="M146.366 23.7979V20.5154L160.885 20.5406C161.625 20.5406 162.189 20.3723 162.576 20.0356C162.98 19.6821 163.182 19.1182 163.182 18.3439C163.182 17.5696 162.98 17.0141 162.576 16.6774C162.189 16.3239 161.625 16.1472 160.885 16.1472H151.845C149.977 16.1472 148.521 15.7011 147.477 14.8089C146.45 13.8999 145.937 12.5701 145.937 10.8194C145.937 9.06877 146.45 7.74736 147.477 6.85519C148.521 5.9462 149.977 5.4917 151.845 5.4917H166.036V8.77419L152.274 8.74894C151.551 8.74894 150.987 8.91727 150.583 9.25393C150.179 9.57377 149.977 10.0956 149.977 10.8194C149.977 11.5433 150.179 12.0735 150.583 12.4102C150.987 12.73 151.551 12.8899 152.274 12.8899H161.314C163.182 12.8899 164.63 13.3528 165.657 14.2787C166.7 15.1877 167.222 16.5427 167.222 18.3439C167.222 20.1282 166.7 21.4833 165.657 22.4091C164.63 23.335 163.182 23.7979 161.314 23.7979H146.366Z" fill="#D55190"/>
<path d="M176.144 23.6716C174.679 23.6716 173.602 23.3097 172.912 22.5859C172.221 21.8452 171.876 20.8773 171.876 19.6821V13.5717H168.114V10.6679H171.876V6.67844H175.538V10.6679H180.941V13.5717H175.538V19.2276C175.538 20.2545 176.043 20.7679 177.053 20.7679H181.648V23.6716H176.144Z" fill="#D55190"/>
<path d="M186.99 23.6716C185.626 23.6716 184.582 23.3265 183.859 22.6364C183.135 21.9462 182.773 20.9615 182.773 19.6821C182.773 18.4196 183.135 17.4433 183.859 16.7532C184.582 16.063 185.626 15.7179 186.99 15.7179H196.686V15.1119C196.686 14.0851 196.181 13.5717 195.171 13.5717H184.465V10.6679H196.13C197.662 10.6679 198.748 11.0214 199.387 11.7284C200.027 12.4186 200.347 13.3949 200.347 14.6574V23.6716H186.99ZM187.646 20.7679H196.686V18.6216H187.646C187.326 18.6216 187.074 18.7226 186.889 18.9246C186.72 19.1098 186.636 19.3623 186.636 19.6821C186.636 20.002 186.72 20.2629 186.889 20.4649C187.074 20.6669 187.326 20.7679 187.646 20.7679Z" fill="#D55190"/>
<path d="M209.901 23.6716C208.436 23.6716 207.359 23.3097 206.669 22.5859C205.978 21.8452 205.633 20.8773 205.633 19.6821V13.5717H201.871V10.6679H205.633V6.67844H209.295V10.6679H214.698V13.5717H209.295V19.2276C209.295 20.2545 209.8 20.7679 210.81 20.7679H215.405V23.6716H209.901Z" fill="#D55190"/>
<path d="M15.9685 15.9683H0V0L15.9685 15.9683Z" fill="#D55190"/>
<path d="M31.9491 15.9683H15.9685L15.9683 0L31.9491 15.9683Z" fill="#D55190"/>
<path d="M15.9685 17.0192H0V33L15.9685 17.0192Z" fill="#D55190"/>
<path d="M31.9491 17.0192H15.9685L15.9683 33L31.9491 17.0192Z" fill="#D55190"/>
</svg>
